HIERARCHY
ROOT root
{
	OFFSET	0	13.1	24.9
	CHANNELS 6  Xposition Yposition Zposition Xrotation Yrotation Zrotation
	JOINT spine_1
	{
		OFFSET	0	9.99999	0
		CHANNELS 3  Xrotation Yrotation Zrotation
		JOINT spine_2
		{
			OFFSET	0	112	-10
			CHANNELS 3  Xrotation Yrotation Zrotation
			JOINT spine_3
			{
				OFFSET	0	206.5	19.3
				CHANNELS 3  Xrotation Yrotation Zrotation
				JOINT spine_4
				{
					OFFSET	0	110.4	14.6
					CHANNELS 3  Xrotation Yrotation Zrotation
					JOINT neck_1
					{
						OFFSET	0	71.8	-50.3
						CHANNELS 3  Xrotation Yrotation Zrotation
						JOINT neck_2
						{
							OFFSET	0	86.2	-25.8
							CHANNELS 3  Xrotation Yrotation Zrotation
							JOINT head_ee
							{
								OFFSET	0	179.8	-8.7
								CHANNELS 3  Xrotation Yrotation Zrotation
								End Site
								{
									OFFSET	1	0	0
								}
							}
						}
					}
					JOINT left_clavicle
					{
						OFFSET	-43.2	22.4	-70.8
						CHANNELS 3  Xrotation Yrotation Zrotation
						JOINT left_shoulder
						{
							OFFSET	-93.9	-5.79999	48.7
							CHANNELS 3  Xrotation Yrotation Zrotation
							JOINT left_elbow
							{
								OFFSET	-291.4	-30.8	15.2
								CHANNELS 3  Xrotation Yrotation Zrotation
								JOINT left_lowarm_twist
								{
									OFFSET	-110.7	-3.89999	13.6
									CHANNELS 3  Xrotation Yrotation Zrotation
									JOINT left_hand
									{
										OFFSET	-110.7	-3.89999	13.6
										CHANNELS 3  Xrotation Yrotation Zrotation
										JOINT left_ee
										{
											OFFSET	-80.8	-5.10001	12.1
											CHANNELS 3  Xrotation Yrotation Zrotation
											End Site
											{
												OFFSET	1	0	0
											}
										}
									}
								}
							}
						}
					}
					JOINT right_clavicle
					{
						OFFSET	43.2	22.4	-70.8
						CHANNELS 3  Xrotation Yrotation Zrotation
						JOINT right_shoulder
						{
							OFFSET	93.9	-5.79999	48.7
							CHANNELS 3  Xrotation Yrotation Zrotation
							JOINT right_elbow
							{
								OFFSET	291.4	-30.8	15.2
								CHANNELS 3  Xrotation Yrotation Zrotation
								JOINT right_lowarm_twist
								{
									OFFSET	110.7	-3.89999	13.6
									CHANNELS 3  Xrotation Yrotation Zrotation
									JOINT right_hand
									{
										OFFSET	110.7	-3.89999	13.6
										CHANNELS 3  Xrotation Yrotation Zrotation
										JOINT right_ee
										{
											OFFSET	80.8	-5.10001	12.1
											CHANNELS 3  Xrotation Yrotation Zrotation
											End Site
											{
												OFFSET	1	0	0
											}
										}
									}
								}
							}
						}
					}
				}
			}
		}
	}
	JOINT left_hip
	{
		OFFSET	-82.8	-127.5	0.300001
		CHANNELS 3  Xrotation Yrotation Zrotation
		JOINT left_knee
		{
			OFFSET	-28.2	-396.7	2.2
			CHANNELS 3  Xrotation Yrotation Zrotation
			JOINT left_ankle
			{
				OFFSET	-11.7	-411.3	35.4
				CHANNELS 3  Xrotation Yrotation Zrotation
				JOINT left_toes
				{
					OFFSET	0	-60	-88.6
					CHANNELS 3  Xrotation Yrotation Zrotation
					JOINT left_foot_ee
					{
						OFFSET	-22.5	-16.5	-42.2
						CHANNELS 3  Xrotation Yrotation Zrotation
						End Site
						{
							OFFSET	1	0	0
						}
					}
				}
			}
		}
	}
	JOINT right_hip
	{
		OFFSET	82.8	-127.5	0.300001
		CHANNELS 3  Xrotation Yrotation Zrotation
		JOINT right_knee
		{
			OFFSET	28.2	-396.7	2.2
			CHANNELS 3  Xrotation Yrotation Zrotation
			JOINT right_ankle
			{
				OFFSET	11.7	-411.3	35.4
				CHANNELS 3  Xrotation Yrotation Zrotation
				JOINT right_toes
				{
					OFFSET	0	-60	-88.6
					CHANNELS 3  Xrotation Yrotation Zrotation
					JOINT right_foot_ee
					{
						OFFSET	22.5	-16.5	-42.2
						CHANNELS 3  Xrotation Yrotation Zrotation
						End Site
						{
							OFFSET	1	0	0
						}
					}
				}
			}
		}
	}
}
MOTION
Frames: 9
Frame Time: 0.02
2960.59587935 701.089 -1917.42106416 -1.96058007373 10.9626349638 1.06497285732 2.50526 0.508481 2.5954 2.50894 0.342357 2.62247 2.52407 -0.100128 2.64281 2.51446 0.318364 2.62549 5.50384 16.6734 -8.81053 8.04897 36.101 -10.2662 -0.0 0.0 -0.0 -4.36302 21.2744 -3.79959 1.00411 -18.3295 61.3201 1.72355 -40.4871 0.635673 14.9237 0.28239 -1.88008 -1.45794 3.45269 -8.21136 -0.0 0.0 -0.0 11.0171 23.4636 -21.4074 -17.8907 13.5812 -78.041 0.301528 8.49555 -0.0223956 43.3457 0.53463 5.38116 2.13398 13.0657 -8.84109 0.0 0.0 0.0 3.31447 9.66176 -1.73939 -5.20454 0.179027 0.778407 28.8259 16.5893 -3.82282 -28.2321 0.0 0.0 -0.0 0.0 -0.0 33.6002 29.1416 -18.2556 -65.3016 2.79883 -9.08252 19.4234 2.30852 2.69566 14.8777 -0.0 -0.0 0.0 0.0 0.0 
2937.10512354 700.403 -1913.48711312 -2.7018528259 11.9669575958 1.50366213416 2.69587 0.43741 2.51732 2.69935 0.276393 2.54003 2.71088 -0.143145 2.55101 2.70189 0.261402 2.54162 4.99751 17.0403 -8.8494 7.56013 36.8422 -10.1647 -0.0 0.0 -0.0 -4.21091 21.2853 -3.57622 2.18277 -17.5227 59.4394 1.76864 -41.2188 0.665164 16.0168 0.283688 -2.01969 -1.45029 1.51114 -9.04584 -0.0 0.0 -0.0 11.4624 24.2994 -22.3371 -17.9202 14.4322 -77.5735 0.219603 6.20866 -0.0119099 45.0276 0.63626 5.57084 1.7645 7.40963 -8.80101 0.0 0.0 0.0 2.87798 8.34328 -1.62169 -5.34803 0.182957 0.800076 32.0756 15.149 -4.1595 -28.5424 0.0 0.0 -0.0 0.0 -0.0 37.6251 26.1463 -18.4898 -68.0391 3.12765 -9.34805 17.0321 1.50463 2.38472 13.7487 -0.0 -0.0 0.0 0.0 0.0 
2925.86794104 700.403 -1901.91420613 -2.73215065721 14.6639872725 1.63517659126 2.69587 0.43741 2.51732 2.69935 0.276393 2.54003 2.71088 -0.143145 2.55101 2.70189 0.261402 2.54162 4.99751 17.0403 -8.8494 7.56013 36.8422 -10.1647 -0.0 0.0 -0.0 -4.21091 21.2853 -3.57622 2.18277 -17.5227 59.4394 1.76864 -41.2188 0.665164 16.0168 0.283688 -2.01969 -1.45029 1.51114 -9.04584 -0.0 0.0 -0.0 11.4624 24.2994 -22.3371 -17.9202 14.4322 -77.5735 0.219603 6.20866 -0.0119099 45.0276 0.63626 5.57084 1.7645 7.40963 -8.80101 0.0 0.0 0.0 2.87798 8.34328 -1.62169 -5.34803 0.182957 0.800076 32.0756 15.149 -4.1595 -28.5424 0.0 0.0 -0.0 0.0 -0.0 37.6251 26.1463 -18.4898 -68.0391 3.12765 -9.34805 17.0321 1.50463 2.38472 13.7487 -0.0 -0.0 0.0 0.0 0.0 
2876.48969143 700.441 -1894.72675949 -2.54834907143 18.2598952722 1.28026483006 2.61501 0.317133 2.77252 2.61927 0.140137 2.78707 2.62521 -0.322342 2.77192 2.61451 0.119302 2.78804 5.03894 16.1697 -9.62328 7.57577 35.9954 -11.0845 -0.0 0.0 -0.0 -4.45029 21.4833 -3.87614 4.64294 -16.5533 58.1381 2.24016 -47.9703 0.996787 15.7497 0.283617 -1.98558 -1.25262 -2.87976 -9.68094 -0.0 0.0 -0.0 11.3076 25.7858 -21.8303 -18.5491 14.8237 -78.8811 0.198687 5.6213 -0.00975444 44.5964 0.609676 5.52249 1.4691 1.27216 -9.347 0.0 0.0 0.0 0.0214833 11.4614 1.70421 -2.9452 0.110011 0.438557 36.527 13.1004 -4.58544 -29.1726 0.0 0.0 -0.0 0.0 -0.0 39.6369 17.0867 -18.4814 -59.1818 2.11229 -8.43469 10.483 10.1678 1.5642 11.2103 -0.0 -0.0 0.0 0.0 0.0 
2822.76549309 697.959 -1902.52664707 -2.40068189767 18.1946307956 1.10004896204 2.04802 0.384399 2.63464 2.05186 0.216031 2.65375 2.06172 -0.251453 2.65063 2.05195 0.170167 2.65708 1.96618 16.7489 -9.99139 4.17973 37.6945 -10.4039 -0.0 0.0 -0.0 -4.08454 22.501 -3.11334 9.54644 -15.1819 57.8626 3.05609 -56.5416 1.6438 12.9629 0.273389 -1.62982 -1.28879 3.3095 -7.14824 -0.0 0.0 -0.0 11.0802 26.8513 -21.1965 -18.9555 15.2308 -77.4217 0.202987 5.74216 -0.0101802 45.4267 0.661198 5.61542 1.11168 -7.30124 -10.3248 0.0 0.0 0.0 -5.81071 12.5258 6.45338 5.42131 -0.260902 -0.790499 39.0224 11.2608 -4.7998 -30.9442 0.0 0.0 -0.0 0.0 -0.0 44.6109 17.3859 -18.3514 -43.353 0.693744 -6.46117 6.88648 0.917576 1.00122 8.98621 -0.0 -0.0 0.0 0.0 0.0 
2800.91421109 693.574 -1912.16447777 -1.63553505325 19.6869134162 0.733213243036 1.88998 0.3364 2.75826 1.8942 0.160272 2.77406 1.90193 -0.335181 2.75841 1.89133 0.10449 2.77672 0.510947 17.1561 -8.11045 2.2042 37.0739 -7.62383 -0.0 0.0 -0.0 -4.22337 21.611 -3.51816 8.87091 -15.8929 57.022 3.226 -57.9506 1.78671 14.1577 0.279893 -1.78228 -1.25619 -4.3619 -10.3631 -0.0 0.0 -0.0 11.1009 25.833 -21.3573 -19.0445 15.2407 -77.9291 0.215132 6.0832 -0.0114312 45.5172 0.666897 5.6255 0.990577 -7.00657 -9.4111 0.0 0.0 0.0 -7.54675 7.136 7.11645 4.19839 -0.195517 -0.614347 40.9545 10.0449 -4.95965 -30.2639 0.0 0.0 -0.0 0.0 -0.0 45.4365 11.6973 -16.1445 -42.396 0.626196 -6.33041 4.85817 11.2331 0.744237 9.33852 -0.0 -0.0 0.0 0.0 0.0 
2800.68574541 693.574 -1911.81031919 -1.6360867584 19.7408274007 0.734848781734 1.88998 0.3364 2.75826 1.8942 0.160272 2.77406 1.90193 -0.335181 2.75841 1.89133 0.10449 2.77672 0.510947 17.1561 -8.11045 2.2042 37.0739 -7.62383 -0.0 0.0 -0.0 -4.22337 21.611 -3.51816 8.87091 -15.8929 57.022 3.226 -57.9506 1.78671 14.1577 0.279893 -1.78228 -1.25619 -4.3619 -10.3631 -0.0 0.0 -0.0 11.1009 25.833 -21.3573 -19.0445 15.2407 -77.9291 0.215132 6.0832 -0.0114312 45.5172 0.666897 5.6255 0.990577 -7.00657 -9.4111 0.0 0.0 0.0 -7.54675 7.136 7.11645 4.19839 -0.195517 -0.614347 40.9545 10.0449 -4.95965 -30.2639 0.0 0.0 -0.0 0.0 -0.0 45.4365 11.6973 -16.1445 -42.396 0.626196 -6.33041 4.85817 11.2331 0.744237 9.33852 -0.0 -0.0 0.0 0.0 0.0 
2783.93188303 693.246 -1913.22907701 -1.8647297105 20.4673383257 0.59850160949 1.8018 0.36409 2.67879 1.80577 0.192957 2.69651 1.81495 -0.29327 2.68746 1.80489 0.134685 2.70005 0.716539 17.1947 -8.84767 2.5727 37.7049 -8.55923 -0.0 0.0 -0.0 -3.99773 21.6563 -3.18296 9.75915 -16.3915 57.7502 3.45061 -59.6569 1.97886 13.7929 0.278244 -1.73572 -1.19676 -4.79024 -10.1456 -0.0 0.0 -0.0 11.1966 25.8131 -21.576 -18.7927 15.3336 -77.3867 0.215964 6.10656 -0.0115196 45.3461 0.656133 5.60642 0.953301 -7.80611 -9.47279 0.0 0.0 0.0 -8.71996 7.42209 8.58801 5.94322 -0.289951 -0.865252 40.8433 10.5906 -4.95457 -30.2188 0.0 0.0 -0.0 0.0 -0.0 43.9037 11.8151 -15.4099 -36.2021 0.242992 -5.45928 3.95266 10.8771 0.605943 9.15174 -0.0 -0.0 0.0 0.0 0.0 
2765.59865838 691.116 -1917.93729168 -3.21601085104 21.0365418914 0.43124514857 1.72455 0.354389 2.92336 1.72929 0.167732 2.93996 1.73807 -0.365711 2.92196 1.72617 0.100141 2.94304 1.07053 16.9531 -9.01022 2.97742 37.3664 -8.88973 -0.0 0.0 -0.0 -4.2496 22.9157 -3.24891 10.3897 -17.4797 58.2078 3.737 -61.6062 2.22848 12.7748 0.272075 -1.60582 -0.78055 -5.23507 -7.50136 -0.0 0.0 -0.0 11.6795 26.9583 -22.5406 -18.807 14.4108 -76.6113 0.216727 6.12798 -0.0116009 45.3881 0.658773 5.61111 0.854783 -9.06993 -9.31034 0.0 0.0 0.0 -7.96609 7.79956 10.7399 5.60335 -0.270957 -0.816603 41.1019 12.8247 -5.00007 -29.9373 0.0 0.0 -0.0 0.0 -0.0 42.9227 10.2318 -14.2979 -30.4127 -0.028039 -4.61274 2.98973 8.97586 0.454684 8.51324 -0.0 -0.0 0.0 0.0 0.0 
